<?xml version="1.0" encoding="UTF-8"?>
<svg xmlns="http://www.w3.org/2000/svg" viewBox="0 0 283.46 245.73">
  <defs>
    <style>
      .cls-1 {
        fill: gray;
        stroke: #3400ca;
        stroke-width: .5px;
      }

      .cls-1, .cls-2, .cls-3, .cls-4 {
        stroke-miterlimit: 10;
      }

      .cls-2, .cls-3, .cls-4 {
        stroke: #000;
        stroke-width: .25px;
      }

      .cls-5 {
        letter-spacing: -.02em;
      }

      .cls-5, .cls-6 {
        font-family: TimesNewRomanPS-ItalicMT, 'Times New Roman';
        font-size: 11.35px;
        font-style: italic;
      }

      .cls-3 {
        fill: #ccc;
      }

      .cls-4 {
        fill: none;
      }
    </style>
  </defs>
  <g id="Layer_3" data-name="Layer 3">
    <g>
      <polygon class="cls-3" points="161.65 132.99 157.86 153.08 177.15 146.32 161.65 132.99"/>
      <line class="cls-3" x1="157.86" y1="153.08" x2="177.15" y2="146.32"/>
      <line class="cls-3" x1="161.65" y1="132.99" x2="157.86" y2="153.08"/>
      <line class="cls-3" x1="177.15" y1="146.32" x2="161.65" y2="132.99"/>
    </g>
  </g>
  <g id="Layer_5" data-name="Layer 5">
    <circle class="cls-4" cx="157.86" cy="153.09" r="51.25"/>
    <circle class="cls-4" cx="161.65" cy="132.99" r="71.71"/>
  </g>
  <g id="Layer_2" data-name="Layer 2">
    <line class="cls-4" x1="157.86" y1="153.08" x2="206.23" y2="136.13"/>
    <line class="cls-2" x1="148.33" y1="203.25" x2="157.86" y2="152.78"/>
    <line class="cls-2" x1="216.09" y1="179.81" x2="177.15" y2="146.32"/>
  </g>
  <g id="Layer_7" data-name="Layer 7">
    <text class="cls-6" transform="translate(206.23 132.36)"><tspan x="0" y="0">C</tspan></text>
    <text class="cls-6" transform="translate(144.06 154.98)"><tspan x="0" y="0">B</tspan></text>
    <text class="cls-5" transform="translate(175.25 140.93)"><tspan x="0" y="0">A</tspan></text>
    <text class="cls-6" transform="translate(157.86 130.61)"><tspan x="0" y="0">D</tspan></text>
    <text class="cls-6" transform="translate(219.03 187.82)"><tspan x="0" y="0">F</tspan></text>
    <text class="cls-6" transform="translate(140.05 198.19)"><tspan x="0" y="0">E</tspan></text>
  </g>
  <g id="Layer_1" data-name="Layer 1">
    <circle class="cls-1" cx="206.23" cy="136.13" r="1.9"/>
    <circle class="cls-1" cx="157.86" cy="153.08" r="1.9"/>
    <circle class="cls-1" cx="216.09" cy="179.81" r="1.9"/>
    <circle class="cls-1" cx="148.27" cy="203.58" r="1.9"/>
    <circle class="cls-1" cx="177.15" cy="146.32" r="1.9"/>
    <circle class="cls-1" cx="161.93" cy="133.24" r="1.9"/>
  </g>
</svg>