<?xml version="1.0" encoding="UTF-8"?>
<svg xmlns="http://www.w3.org/2000/svg" viewBox="0 0 283.46 245.73">
  <defs>
    <style>
      .cls-1 {
        fill: gray;
        stroke: #3400ca;
        stroke-width: .5px;
      }

      .cls-1, .cls-2, .cls-3, .cls-4 {
        stroke-miterlimit: 10;
      }

      .cls-5 {
        letter-spacing: -.02em;
      }

      .cls-5, .cls-6 {
        font-family: TimesNewRomanPS-ItalicMT, 'Times New Roman';
        font-size: 11.41px;
        font-style: italic;
      }

      .cls-2, .cls-3, .cls-4 {
        stroke: #000;
        stroke-width: .25px;
      }

      .cls-3 {
        fill: #ccc;
      }

      .cls-4 {
        fill: none;
      }
    </style>
  </defs>
  <g id="Layer_1" data-name="Layer 1">
    <circle class="cls-1" cx="221.44" cy="116.64" r="1.91"/>
    <circle class="cls-1" cx="172.79" cy="133.68" r="1.91"/>
    <circle class="cls-1" cx="162.63" cy="151.47" r="1.91"/>
    <circle class="cls-1" cx="224.3" cy="133.7" r="1.91"/>
    <circle class="cls-1" cx="152.33" cy="133.65" r="1.91"/>
    <circle class="cls-1" cx="188.46" cy="196.29" r="1.91"/>
  </g>
  <g id="Layer_3" data-name="Layer 3">
    <g>
      <polygon class="cls-3" points="172.9 133.7 152.33 133.6 162.53 151.45 172.9 133.7"/>
      <line class="cls-3" x1="152.33" y1="133.6" x2="162.53" y2="151.45"/>
      <line class="cls-3" x1="172.9" y1="133.7" x2="152.33" y2="133.6"/>
      <line class="cls-3" x1="162.53" y1="151.45" x2="172.9" y2="133.7"/>
    </g>
  </g>
  <g id="Layer_4" data-name="Layer 4">
    <circle class="cls-4" cx="172.74" cy="133.7" r="51.55"/>
    <circle class="cls-4" cx="152.33" cy="133.65" r="72.12"/>
  </g>
  <g id="Layer_2" data-name="Layer 2">
    <line class="cls-4" x1="172.79" y1="133.68" x2="221.44" y2="116.64"/>
    <line class="cls-2" x1="172.79" y1="133.68" x2="224.45" y2="133.65"/>
    <line class="cls-4" x1="162.63" y1="151.47" x2="188.46" y2="196.29"/>
    <text class="cls-5" transform="translate(150.42 160.01)"><tspan x="0" y="0">A</tspan></text>
    <text class="cls-6" transform="translate(174.7 146.12)"><tspan x="0" y="0">B</tspan></text>
    <text class="cls-6" transform="translate(205.35 116.64)"><tspan x="0" y="0">C</tspan></text>
    <text class="cls-6" transform="translate(213.38 144.59)"><tspan x="0" y="0">E</tspan></text>
    <text class="cls-6" transform="translate(138.12 137.6)"><tspan x="0" y="0">D</tspan></text>
    <text class="cls-6" transform="translate(193.29 204.67)"><tspan x="0" y="0">F</tspan></text>
  </g>
</svg>