<?xml version="1.0" encoding="UTF-8"?>
<svg xmlns="http://www.w3.org/2000/svg" viewBox="0 0 199.36 118.62">
  <defs>
    <style>
      .cls-1 {
        fill: gray;
        stroke: #3400ca;
        stroke-width: .5px;
      }

      .cls-1, .cls-2, .cls-3 {
        stroke-miterlimit: 10;
      }

      .cls-4 {
        letter-spacing: -.02em;
      }

      .cls-4, .cls-5 {
        font-family: TimesNewRomanPS-ItalicMT, 'Times New Roman';
        font-size: 11.41px;
        font-style: italic;
      }

      .cls-2 {
        fill: #ccc;
      }

      .cls-2, .cls-3 {
        stroke: #000;
        stroke-width: .25px;
      }

      .cls-3 {
        fill: none;
      }
    </style>
  </defs>
  <g id="Layer_2" data-name="Layer 2">
    <g>
      <polygon class="cls-2" points="99.68 16.13 50.6 101.16 148.76 101.16 99.68 16.13"/>
      <line class="cls-2" x1="50.6" y1="101.16" x2="148.76" y2="101.16"/>
      <line class="cls-2" x1="99.68" y1="16.13" x2="50.6" y2="101.16"/>
      <line class="cls-2" x1="148.76" y1="101.16" x2="99.68" y2="16.13"/>
    </g>
  </g>
  <g id="Layer_1" data-name="Layer 1">
    <circle class="cls-3" cx="75.14" cy="58.65" r="49.08"/>
    <circle class="cls-3" cx="124.22" cy="58.65" r="49.08"/>
  </g>
  <g id="Layer_3" data-name="Layer 3">
    <circle class="cls-1" cx="26.06" cy="58.65" r="1.79"/>
    <circle class="cls-1" cx="50.6" cy="101.16" r="1.79"/>
    <circle class="cls-1" cx="99.68" cy="101.16" r="1.79"/>
    <circle class="cls-1" cx="148.76" cy="101.16" r="1.79"/>
    <circle class="cls-1" cx="173.31" cy="58.65" r="1.79"/>
    <circle class="cls-1" cx="75.14" cy="58.65" r="1.79"/>
    <circle class="cls-1" cx="124.22" cy="58.65" r="1.79"/>
    <circle class="cls-1" cx="99.68" cy="16.13" r="1.79"/>
  </g>
  <g id="Layer_5" data-name="Layer 5">
    <text class="cls-4" transform="translate(62.62 62.07)"><tspan x="0" y="0">A</tspan></text>
    <text class="cls-5" transform="translate(128.31 62.07)"><tspan x="0" y="0">B</tspan></text>
    <text class="cls-5" transform="translate(95.91 11.63)"><tspan x="0" y="0">C</tspan></text>
    <text class="cls-5" transform="translate(12.7 62.07)"><tspan x="0" y="0">D</tspan></text>
    <text class="cls-5" transform="translate(178.04 64.12)"><tspan x="0" y="0">E</tspan></text>
    <text class="cls-5" transform="translate(95.63 115.12)"><tspan x="0" y="0">F</tspan></text>
    <text class="cls-5" transform="translate(38.41 113.29)"><tspan x="0" y="0">G</tspan></text>
    <text class="cls-5" transform="translate(151.69 110.28)"><tspan x="0" y="0">H</tspan></text>
  </g>
</svg>