<?xml version="1.0" encoding="UTF-8"?>
<svg xmlns="http://www.w3.org/2000/svg" viewBox="0 0 199.36 118.62">
  <defs>
    <style>
      .cls-1 {
        fill: gray;
        stroke: #3400ca;
        stroke-width: .5px;
      }

      .cls-1, .cls-2, .cls-3 {
        stroke-miterlimit: 10;
      }

      .cls-4 {
        font-size: 6px;
      }

      .cls-4, .cls-5, .cls-6 {
        font-family: TimesNewRomanPS-ItalicMT, 'Times New Roman';
        font-style: italic;
      }

      .cls-5 {
        letter-spacing: -.02em;
      }

      .cls-5, .cls-6 {
        font-size: 11.41px;
      }

      .cls-2 {
        fill: #ccc;
      }

      .cls-2, .cls-3 {
        stroke: #000;
        stroke-width: .25px;
      }

      .cls-3 {
        fill: none;
      }
    </style>
  </defs>
  <g id="Layer_1" data-name="Layer 1">
    <circle class="cls-3" cx="75.14" cy="58.65" r="49.08"/>
    <circle class="cls-3" cx="124.22" cy="58.65" r="49.08"/>
  </g>
  <g id="Layer_2" data-name="Layer 2">
    <g>
      <polygon class="cls-2" points="99.68 16.13 75.14 58.65 124.22 58.65 99.68 16.13"/>
      <line class="cls-2" x1="75.14" y1="58.65" x2="124.22" y2="58.65"/>
      <line class="cls-2" x1="99.68" y1="16.13" x2="75.14" y2="58.65"/>
      <line class="cls-2" x1="124.22" y1="58.65" x2="99.68" y2="16.13"/>
    </g>
  </g>
  <g id="Layer_6" data-name="Layer 6">
    <line class="cls-3" x1="75.14" y1="58.65" x2="87.41" y2="37.39"/>
    <line class="cls-3" x1="124.22" y1="58.65" x2="111.95" y2="37.39"/>
    <line class="cls-3" x1="75.14" y1="58.65" x2="99.68" y2="58.65"/>
    <line class="cls-3" x1="99.68" y1="58.65" x2="87.41" y2="37.39"/>
    <line class="cls-3" x1="99.68" y1="58.65" x2="111.95" y2="37.39"/>
    <line class="cls-3" x1="87.41" y1="37.39" x2="111.95" y2="37.39"/>
    <line class="cls-3" x1="99.68" y1="58.65" x2="99.68" y2="37.39"/>
    <line class="cls-3" x1="111.96" y1="37.39" x2="93.55" y2="48.02"/>
    <line class="cls-3" x1="87.47" y1="37.43" x2="105.88" y2="48.06"/>
    <circle class="cls-3" cx="99.67" cy="44.48" r="14.16"/>
    <line class="cls-3" x1="99.67" y1="44.48" x2="75.14" y2="58.65"/>
    <line class="cls-3" x1="99.68" y1="16.13" x2="99.67" y2="44.48"/>
    <line class="cls-3" x1="99.67" y1="44.48" x2="124.22" y2="58.65"/>
  </g>
  <g id="Layer_3" data-name="Layer 3">
    <circle class="cls-1" cx="26.06" cy="58.65" r="1.79"/>
    <circle class="cls-1" cx="50.6" cy="101.16" r="1.79"/>
    <circle class="cls-1" cx="99.68" cy="101.16" r="1.79"/>
    <circle class="cls-1" cx="148.76" cy="101.16" r="1.79"/>
    <circle class="cls-1" cx="173.31" cy="58.65" r="1.79"/>
    <circle class="cls-1" cx="75.14" cy="58.65" r="1.79"/>
    <circle class="cls-1" cx="124.22" cy="58.65" r="1.79"/>
    <circle class="cls-1" cx="99.68" cy="16.13" r="1.79"/>
    <circle class="cls-1" cx="99.66" cy="58.62" r="1.79"/>
    <circle class="cls-1" cx="111.95" cy="37.39" r="1.79"/>
    <circle class="cls-1" cx="87.43" cy="37.42" r="1.79"/>
    <circle class="cls-1" cx="99.69" cy="44.48" r="1.79"/>
  </g>
  <g id="Layer_5" data-name="Layer 5">
    <text class="cls-5" transform="translate(62.62 62.07)"><tspan x="0" y="0">A</tspan></text>
    <text class="cls-6" transform="translate(128.31 62.07)"><tspan x="0" y="0">B</tspan></text>
    <text class="cls-6" transform="translate(95.91 11.63)"><tspan x="0" y="0">C</tspan></text>
    <text class="cls-6" transform="translate(12.7 62.07)"><tspan x="0" y="0">D</tspan></text>
    <text class="cls-6" transform="translate(178.04 64.12)"><tspan x="0" y="0">E</tspan></text>
    <text class="cls-6" transform="translate(95.63 115.12)"><tspan x="0" y="0">F</tspan></text>
    <text class="cls-6" transform="translate(38.41 113.29)"><tspan x="0" y="0">G</tspan></text>
    <text class="cls-6" transform="translate(151.69 110.28)"><tspan x="0" y="0">H</tspan></text>
    <text class="cls-6" transform="translate(96.68 69.22)"><tspan x="0" y="0">I</tspan></text>
    <text class="cls-6" transform="translate(120.74 39.18)"><tspan x="0" y="0">J</tspan></text>
    <text class="cls-6" transform="translate(71.56 39.35)"><tspan x="0" y="0">K</tspan></text>
    <text class="cls-4" transform="translate(108.2 48.02)"><tspan x="0" y="0">O</tspan></text>
  </g>
</svg>